# xmcd
#
# Track frame offsets:
# 150
# 12937
# 27845
# 42460
# 55732
# 67227
# 81955
# 93170
# 106317
# 118995
# 130995
# 145590
# 159087
# 169247
# 183465
# 204767
# 218045
# 247205
# 260535
# 274100
# 289087
# 300412
# 313812
#
# Disc length: 4363 seconds
#
#
# Revision: 1
# Processed by: cddbd v1.5.1PL2 Copyright (c) Steve Scherf et al.
# Submitted via: FreeRIP 2.51 
#
DISCID=4d110917
DTITLE=Various Artist - Jazz Anthology - MIlestones
DYEAR=1900
DGENRE=Jazz
TTITLE0=Buudy Rich Orchestra - Quiet Riot
TTITLE1=Gene Krupa Orchestra - How High The Moon
TTITLE2=Woody Herman Orchestra - Four Brothers
TTITLE3=Dizzy Gillespie Orchestra - Algo Bueno
TTITLE4=Miles Davis All Stars - Milestones
TTITLE5=Lennie Tristano Trio - On a Planet
TTITLE6=Ray Brown Bepop Boys - Moody Speaks
TTITLE7=Bud Powell - Bebop in Pastel
TTITLE8=Don Byas Quartet - Danny Boy
TTITLE9=Erroll Garner Trio - Laura
TTITLE10=Ben Webster Quartet - Blue Skies
TTITLE11=Stan Hasselgard Sextet - Swedish Pastry
TTITLE12=Art Tatum Trio - I Got Rhythm
TTITLE13=Lester Young - These Foolish Things
TTITLE14=Charlie Parker Quartet - The Bird
TTITLE15=Tadd Dameron Sextet - Dameronia
TTITLE16=Dexter Gordon-Wardell Gray Quintet - The Chase
TTITLE17=Charlie Shaver's All American Five - Ela Salon De Gutbucket
TTITLE18=Leo Parker Sextet - Leaping Leo
TTITLE19=Lester Young Band - She's Funny That Way
TTITLE20=Stan Getz Quartet - Opus De Bop
TTITLE21=Johnny Hodges Orchestra - Day Dream
TTITLE22=Kenny Clarke - Royal Roost
EXTD=
EXTT0=
EXTT1=
EXTT2=
EXTT3=
EXTT4=
EXTT5=
EXTT6=
EXTT7=
EXTT8=
EXTT9=
EXTT10=
EXTT11=
EXTT12=
EXTT13=
EXTT14=
EXTT15=
EXTT16=
EXTT17=
EXTT18=
EXTT19=
EXTT20=
EXTT21=
EXTT22=
PLAYORDER=
